/* XPM */
static char *f714178617734c0bd347c0bfd4bfc6cf52WaHqo8JJSbtYsl[] = {
/* columns rows colors chars-per-pixel */
"32 32 12 1 ",
"  c None",
". c #1C1117",
"X c #35271F",
"o c #301D27",
"O c #563F2A",
"+ c #422835",
"@ c #664729",
"# c #7A5937",
"$ c #523A42",
"% c #8D6845",
"& c #487085",
"* c #5A8CA6",
/* pixels */
"         ..............         ",
"      ...$$.$$$.$$$.$$$...      ",
"    ..$$$++.++o.++o.++o.$$..    ",
"   .$$.o+..............$++$$.   ",
"  .+++...              ...++o.  ",
" ..oo..                   ..... ",
" .$..O.                    .$$. ",
".++$.O.                    ..++.",
".++.O@.                     .oo.",
"ooo.%@.                     ....",
"...O%@.                      .$$",
"$$.%#@.                      .++",
"+...#@.                      .++",
"o.&..@.                      .oo",
"..&*.@.                      ...",
"$.&..@.                      .$$",
"+...X@.                      .++",
"oo.X#O.                      .oo",
"...#%O.                      ...",
"$$.#%O...                    .$$",
"++.#%O.&.                    .++",
"oo.##O.*.                    .oo",
"...%#O.*.                    ...",
"$$.%#O.&.                    .$$",
"+...#@.*.                    .++",
"+.&..O..                     .oo",
"o.&*.@.                      ...",
"..&..O.                      .$$",
"$...XO.                      .++",
"++.X#O.                      .++",
"oo.OOO.                      .oo",
"......                       ..."
};
