/* XPM */
static char *c80df1bbf18c4f60cb3a67a7ccb3f6384OSma3TR3gip8SkF[] = {
/* columns rows colors chars-per-pixel */
"16 20 7 1 ",
"  c None",
". c #1C1117",
"X c #92263B",
"o c #AA6622",
"O c #D04648",
"+ c #CCAA44",
"@ c #DCC57F",
/* pixels */
"  ......        ",
" .XXOOOO.       ",
".X..XXOOO.      ",
"..  .XXOO.      ",
"     .XX.       ",
"   ..........   ",
"   .++++++@@.   ",
"   .++oooooo... ",
"   .++o@@@@@@@. ",
"   .++o@.@.@.@. ",
"   .++o@.@.@.@. ",
"   .++o@.@.@.@. ",
"   .++o@@@@@@@. ",
"   .++oooooo... ",
"   .+++++++@.   ",
"   .ooooooo+.   ",
"   .+++++++@.   ",
"   .+++++++@.   ",
"   .o......o.   ",
"   ...    ...   "
};
