/* XPM */
static char *_feeee3b23a94a3bc3a10f29212b5dfbKKcviDdPbjiNFQor[] = {
/* columns rows colors chars-per-pixel */
"16 16 9 1 ",
"  c None",
". c #1C1117",
"X c #7C5E46",
"o c #92263B",
"O c #CC7733",
"+ c #A47D5B",
"@ c #D04648",
"# c gray78",
"$ c gray92",
/* pixels */
"  ........      ",
" .oo@@@@@O.     ",
".o.oo@@@@@O..   ",
".  .oooo@@@@O.  ",
"  ............. ",
" ..#$X$$+++$$.  ",
"  .#$X..+++..   ",
"  .#$X..+++..   ",
"  .#$$XX+++X$.  ",
"  .#$$$$$$$$$$. ",
"   .oo#$$$$$$.  ",
"   .@@@$$$$$.   ",
"   .@@@#$$$$.   ",
"   .@@@@$$$O.   ",
"   .o...#$$o.   ",
"   ... ..#...   "
};
